<svg width="1440" height="1024" viewBox="0 0 1440 1024" fill="none" xmlns="http://www.w3.org/2000/svg">
<rect width="1440" height="1024" rx="4" fill="url(#paint0_linear_27_217)"/>
<g filter="url(#filter0_d_27_217)">
<rect x="264" y="202" width="914" height="609" rx="19" fill="#D9D9D9" fill-opacity="0.22" shape-rendering="crispEdges"/>
<rect x="264.5" y="202.5" width="913" height="608" rx="18.5" stroke="url(#paint1_linear_27_217)" shape-rendering="crispEdges"/>
</g>
<path d="M678.983 276H656.922V244.491H663.229V269.694H678.983V276ZM712.052 260.377C712.052 261.872 711.854 263.314 711.458 264.706C711.078 266.083 710.536 267.379 709.833 268.595C709.129 269.796 708.28 270.895 707.284 271.891C706.288 272.887 705.189 273.744 703.988 274.462C702.787 275.165 701.49 275.707 700.099 276.088C698.707 276.483 697.264 276.681 695.77 276.681C694.276 276.681 692.833 276.483 691.441 276.088C690.064 275.707 688.768 275.165 687.552 274.462C686.351 273.744 685.252 272.887 684.256 271.891C683.26 270.895 682.403 269.796 681.686 268.595C680.982 267.379 680.433 266.083 680.038 264.706C679.657 263.314 679.466 261.872 679.466 260.377C679.466 258.883 679.657 257.44 680.038 256.049C680.433 254.657 680.982 253.361 681.686 252.16C682.403 250.958 683.26 249.86 684.256 248.864C685.252 247.868 686.351 247.018 687.552 246.315C688.768 245.612 690.064 245.07 691.441 244.689C692.833 244.293 694.276 244.096 695.77 244.096C697.264 244.096 698.707 244.293 700.099 244.689C701.49 245.07 702.787 245.612 703.988 246.315C705.189 247.018 706.288 247.868 707.284 248.864C708.28 249.86 709.129 250.958 709.833 252.16C710.536 253.361 711.078 254.657 711.458 256.049C711.854 257.44 712.052 258.883 712.052 260.377ZM705.79 260.377C705.79 259 705.526 257.704 704.999 256.488C704.471 255.258 703.753 254.196 702.845 253.302C701.952 252.394 700.89 251.676 699.659 251.149C698.443 250.622 697.147 250.358 695.77 250.358C694.378 250.358 693.075 250.622 691.859 251.149C690.643 251.676 689.581 252.394 688.673 253.302C687.765 254.196 687.047 255.258 686.52 256.488C685.992 257.704 685.729 259 685.729 260.377C685.729 261.754 685.992 263.051 686.52 264.267C687.047 265.468 687.765 266.522 688.673 267.431C689.581 268.339 690.643 269.057 691.859 269.584C693.075 270.111 694.378 270.375 695.77 270.375C697.147 270.375 698.443 270.111 699.659 269.584C700.89 269.057 701.952 268.339 702.845 267.431C703.753 266.522 704.471 265.468 704.999 264.267C705.526 263.051 705.79 261.754 705.79 260.377ZM741.275 272.814C739.811 274.059 738.177 275.019 736.375 275.692C734.574 276.352 732.699 276.681 730.75 276.681C729.256 276.681 727.813 276.483 726.422 276.088C725.045 275.707 723.756 275.165 722.555 274.462C721.354 273.744 720.255 272.895 719.259 271.913C718.263 270.917 717.413 269.818 716.71 268.617C716.007 267.401 715.458 266.098 715.062 264.706C714.681 263.314 714.491 261.872 714.491 260.377C714.491 258.883 714.681 257.448 715.062 256.071C715.458 254.694 716.007 253.405 716.71 252.204C717.413 250.988 718.263 249.889 719.259 248.908C720.255 247.912 721.354 247.062 722.555 246.359C723.756 245.656 725.045 245.114 726.422 244.733C727.813 244.337 729.256 244.14 730.75 244.14C732.699 244.14 734.574 244.477 736.375 245.15C738.177 245.81 739.811 246.762 741.275 248.007L737.979 253.5C737.027 252.533 735.929 251.779 734.684 251.237C733.438 250.68 732.127 250.402 730.75 250.402C729.374 250.402 728.077 250.666 726.861 251.193C725.66 251.72 724.605 252.438 723.697 253.346C722.789 254.24 722.071 255.294 721.544 256.51C721.017 257.711 720.753 259 720.753 260.377C720.753 261.769 721.017 263.073 721.544 264.289C722.071 265.504 722.789 266.566 723.697 267.475C724.605 268.383 725.66 269.101 726.861 269.628C728.077 270.155 729.374 270.419 730.75 270.419C731.542 270.419 732.311 270.324 733.058 270.133C733.805 269.943 734.515 269.679 735.189 269.342V260.377H741.275V272.814ZM752.438 276H746.131V244.491H752.438V276ZM783.507 276H776.761L764.61 255.258V276H758.304V244.491H765.05L777.201 265.255V244.491H783.507V276Z" fill="black"/>
<path d="M352.696 521.317V524H339.52V521.317H352.696ZM340.187 499.117V524H336.888V499.117H340.187ZM350.953 509.815V512.499H339.52V509.815H350.953ZM352.525 499.117V501.817H339.52V499.117H352.525ZM357.823 499.117H361.019L369.171 519.403L377.306 499.117H380.519L370.401 524H367.906L357.823 499.117ZM356.781 499.117H359.601L360.062 514.293V524H356.781V499.117ZM378.724 499.117H381.544V524H378.263V514.293L378.724 499.117ZM396.856 501.322L388.619 524H385.252L394.737 499.117H396.908L396.856 501.322ZM403.761 524L395.506 501.322L395.455 499.117H397.625L407.145 524H403.761ZM403.333 514.789V517.489H389.354V514.789H403.333ZM414.015 499.117V524H410.716V499.117H414.015ZM435.104 521.317V524H422.662V521.317H435.104ZM423.312 499.117V524H420.013V499.117H423.312Z" fill="black"/>
<rect x="518.5" y="487.5" width="440" height="49" rx="3.5" fill="white" stroke="white"/>
<path d="M547.286 525.237V527H538.627V525.237H547.286ZM539.065 510.648V527H536.898V510.648H539.065ZM546.141 517.679V519.442H538.627V517.679H546.141ZM547.174 510.648V512.423H538.627V510.648H547.174ZM551.733 517.443V527H549.656V514.849H551.621L551.733 517.443ZM551.239 520.464L550.375 520.43C550.382 519.599 550.506 518.832 550.745 518.128C550.985 517.417 551.322 516.799 551.756 516.275C552.19 515.751 552.707 515.347 553.306 515.062C553.912 514.77 554.582 514.624 555.316 514.624C555.915 514.624 556.454 514.706 556.933 514.871C557.412 515.028 557.82 515.283 558.157 515.635C558.502 515.987 558.764 516.443 558.943 517.005C559.123 517.559 559.213 518.236 559.213 519.038V527H557.124V519.015C557.124 518.379 557.03 517.87 556.843 517.488C556.656 517.098 556.383 516.818 556.023 516.646C555.664 516.466 555.222 516.376 554.698 516.376C554.182 516.376 553.71 516.485 553.283 516.702C552.864 516.919 552.501 517.218 552.194 517.6C551.894 517.982 551.659 518.42 551.486 518.914C551.322 519.401 551.239 519.917 551.239 520.464ZM567.456 514.849V516.443H560.886V514.849H567.456ZM563.11 511.895H565.188V523.99C565.188 524.402 565.251 524.713 565.378 524.922C565.506 525.132 565.67 525.271 565.873 525.338C566.075 525.405 566.292 525.439 566.524 525.439C566.696 525.439 566.876 525.424 567.063 525.394C567.258 525.357 567.404 525.327 567.501 525.304L567.512 527C567.347 527.052 567.13 527.101 566.861 527.146C566.599 527.198 566.281 527.225 565.906 527.225C565.397 527.225 564.929 527.124 564.502 526.921C564.076 526.719 563.735 526.382 563.48 525.911C563.233 525.431 563.11 524.788 563.11 523.979V511.895ZM574.936 527.225C574.09 527.225 573.322 527.082 572.633 526.798C571.952 526.506 571.364 526.098 570.87 525.574C570.383 525.05 570.009 524.428 569.747 523.709C569.485 522.991 569.354 522.205 569.354 521.351V520.879C569.354 519.891 569.5 519.011 569.792 518.24C570.084 517.462 570.481 516.803 570.982 516.264C571.484 515.725 572.053 515.317 572.689 515.04C573.326 514.763 573.985 514.624 574.666 514.624C575.535 514.624 576.283 514.774 576.912 515.073C577.549 515.373 578.069 515.792 578.473 516.331C578.877 516.863 579.177 517.492 579.372 518.218C579.566 518.937 579.664 519.723 579.664 520.576V521.508H570.589V519.812H577.586V519.655C577.556 519.116 577.444 518.592 577.249 518.083C577.062 517.574 576.762 517.155 576.351 516.825C575.939 516.496 575.377 516.331 574.666 516.331C574.194 516.331 573.76 516.432 573.363 516.634C572.966 516.829 572.626 517.121 572.341 517.51C572.057 517.9 571.836 518.375 571.679 518.937C571.521 519.498 571.443 520.146 571.443 520.879V521.351C571.443 521.928 571.521 522.47 571.679 522.979C571.843 523.481 572.079 523.923 572.386 524.305C572.701 524.687 573.079 524.986 573.521 525.203C573.97 525.42 574.479 525.529 575.048 525.529C575.782 525.529 576.403 525.379 576.912 525.08C577.421 524.78 577.867 524.38 578.249 523.878L579.506 524.877C579.244 525.274 578.911 525.652 578.507 526.012C578.103 526.371 577.605 526.663 577.013 526.888C576.429 527.112 575.737 527.225 574.936 527.225ZM584.167 516.758V527H582.089V514.849H584.111L584.167 516.758ZM587.963 514.781L587.952 516.713C587.779 516.675 587.615 516.653 587.458 516.646C587.308 516.631 587.136 516.623 586.941 516.623C586.462 516.623 586.039 516.698 585.672 516.848C585.305 516.997 584.994 517.207 584.74 517.477C584.485 517.746 584.283 518.068 584.133 518.442C583.991 518.809 583.897 519.214 583.853 519.655L583.269 519.992C583.269 519.258 583.34 518.57 583.482 517.926C583.632 517.282 583.86 516.713 584.167 516.219C584.474 515.717 584.863 515.328 585.335 515.051C585.814 514.766 586.383 514.624 587.042 514.624C587.192 514.624 587.364 514.643 587.559 514.68C587.753 514.71 587.888 514.744 587.963 514.781ZM596.655 510.648L600.9 518.858L605.157 510.648H607.616L601.979 520.891V527H599.811V520.891L594.173 510.648H596.655ZM608.11 521.059V520.801C608.11 519.925 608.238 519.112 608.492 518.364C608.747 517.608 609.114 516.952 609.593 516.398C610.072 515.837 610.652 515.403 611.333 515.096C612.015 514.781 612.778 514.624 613.625 514.624C614.478 514.624 615.245 514.781 615.927 515.096C616.616 515.403 617.2 515.837 617.679 516.398C618.165 516.952 618.536 517.608 618.791 518.364C619.045 519.112 619.172 519.925 619.172 520.801V521.059C619.172 521.935 619.045 522.747 618.791 523.496C618.536 524.245 618.165 524.9 617.679 525.461C617.2 526.015 616.619 526.45 615.938 526.764C615.264 527.071 614.5 527.225 613.647 527.225C612.793 527.225 612.026 527.071 611.345 526.764C610.663 526.45 610.079 526.015 609.593 525.461C609.114 524.9 608.747 524.245 608.492 523.496C608.238 522.747 608.11 521.935 608.11 521.059ZM610.188 520.801V521.059C610.188 521.666 610.259 522.238 610.401 522.777C610.544 523.309 610.757 523.781 611.042 524.192C611.333 524.604 611.697 524.93 612.131 525.169C612.565 525.402 613.07 525.518 613.647 525.518C614.216 525.518 614.714 525.402 615.141 525.169C615.575 524.93 615.934 524.604 616.219 524.192C616.503 523.781 616.717 523.309 616.859 522.777C617.009 522.238 617.083 521.666 617.083 521.059V520.801C617.083 520.202 617.009 519.637 616.859 519.105C616.717 518.566 616.5 518.09 616.208 517.679C615.923 517.259 615.564 516.93 615.129 516.69C614.703 516.451 614.201 516.331 613.625 516.331C613.056 516.331 612.554 516.451 612.12 516.69C611.693 516.93 611.333 517.259 611.042 517.679C610.757 518.09 610.544 518.566 610.401 519.105C610.259 519.637 610.188 520.202 610.188 520.801ZM629.212 524.192V514.849H631.301V527H629.313L629.212 524.192ZM629.605 521.632L630.47 521.609C630.47 522.418 630.384 523.167 630.212 523.855C630.047 524.537 629.778 525.128 629.403 525.63C629.029 526.132 628.539 526.525 627.932 526.809C627.326 527.086 626.588 527.225 625.72 527.225C625.128 527.225 624.585 527.139 624.091 526.966C623.605 526.794 623.185 526.528 622.833 526.169C622.482 525.81 622.208 525.342 622.014 524.765C621.826 524.189 621.733 523.496 621.733 522.688V514.849H623.811V522.71C623.811 523.257 623.87 523.709 623.99 524.069C624.118 524.421 624.286 524.701 624.496 524.911C624.713 525.113 624.952 525.256 625.214 525.338C625.484 525.42 625.761 525.461 626.045 525.461C626.929 525.461 627.629 525.293 628.146 524.956C628.662 524.612 629.033 524.151 629.257 523.575C629.489 522.991 629.605 522.343 629.605 521.632ZM636.546 516.758V527H634.468V514.849H636.49L636.546 516.758ZM640.342 514.781L640.331 516.713C640.158 516.675 639.994 516.653 639.836 516.646C639.687 516.631 639.514 516.623 639.32 516.623C638.841 516.623 638.418 516.698 638.051 516.848C637.684 516.997 637.373 517.207 637.119 517.477C636.864 517.746 636.662 518.068 636.512 518.442C636.37 518.809 636.276 519.214 636.231 519.655L635.647 519.992C635.647 519.258 635.719 518.57 635.861 517.926C636.011 517.282 636.239 516.713 636.546 516.219C636.853 515.717 637.242 515.328 637.714 515.051C638.193 514.766 638.762 514.624 639.421 514.624C639.571 514.624 639.743 514.643 639.938 514.68C640.132 514.71 640.267 514.744 640.342 514.781ZM658.67 525.237V527H650.011V525.237H658.67ZM650.449 510.648V527H648.282V510.648H650.449ZM657.524 517.679V519.442H650.011V517.679H657.524ZM658.558 510.648V512.423H650.011V510.648H658.558ZM663.106 517.263V527H661.017V514.849H662.994L663.106 517.263ZM662.679 520.464L661.713 520.43C661.721 519.599 661.829 518.832 662.039 518.128C662.249 517.417 662.559 516.799 662.971 516.275C663.383 515.751 663.896 515.347 664.51 515.062C665.124 514.77 665.835 514.624 666.644 514.624C667.213 514.624 667.737 514.706 668.216 514.871C668.695 515.028 669.111 515.279 669.462 515.624C669.814 515.968 670.088 516.41 670.282 516.949C670.477 517.488 670.574 518.139 670.574 518.903V527H668.497V519.004C668.497 518.368 668.388 517.858 668.171 517.477C667.961 517.095 667.662 516.818 667.272 516.646C666.883 516.466 666.426 516.376 665.902 516.376C665.288 516.376 664.776 516.485 664.364 516.702C663.952 516.919 663.623 517.218 663.375 517.6C663.128 517.982 662.949 518.42 662.836 518.914C662.732 519.401 662.679 519.917 662.679 520.464ZM670.552 519.318L669.159 519.745C669.167 519.079 669.275 518.439 669.485 517.825C669.702 517.211 670.013 516.664 670.417 516.185C670.829 515.706 671.334 515.328 671.933 515.051C672.532 514.766 673.217 514.624 673.988 514.624C674.64 514.624 675.216 514.71 675.718 514.882C676.227 515.055 676.654 515.32 676.998 515.68C677.35 516.032 677.616 516.485 677.795 517.039C677.975 517.593 678.065 518.251 678.065 519.015V527H675.976V518.993C675.976 518.311 675.868 517.784 675.65 517.409C675.441 517.027 675.141 516.762 674.752 516.612C674.37 516.455 673.913 516.376 673.382 516.376C672.925 516.376 672.521 516.455 672.169 516.612C671.817 516.769 671.521 516.986 671.282 517.263C671.042 517.533 670.859 517.843 670.731 518.195C670.612 518.547 670.552 518.922 670.552 519.318ZM688.375 524.922V518.667C688.375 518.188 688.277 517.772 688.083 517.42C687.895 517.061 687.611 516.784 687.229 516.589C686.847 516.395 686.375 516.297 685.814 516.297C685.29 516.297 684.829 516.387 684.433 516.567C684.043 516.747 683.736 516.982 683.512 517.274C683.295 517.566 683.186 517.881 683.186 518.218H681.108C681.108 517.784 681.221 517.353 681.445 516.926C681.67 516.5 681.992 516.114 682.411 515.77C682.838 515.418 683.347 515.141 683.938 514.938C684.537 514.729 685.204 514.624 685.938 514.624C686.821 514.624 687.6 514.774 688.273 515.073C688.955 515.373 689.486 515.826 689.868 516.432C690.257 517.031 690.452 517.784 690.452 518.689V524.35C690.452 524.754 690.486 525.184 690.553 525.641C690.628 526.098 690.737 526.491 690.879 526.82V527H688.711C688.607 526.76 688.524 526.442 688.464 526.045C688.404 525.641 688.375 525.267 688.375 524.922ZM688.734 519.633L688.756 521.093H686.656C686.065 521.093 685.537 521.141 685.073 521.239C684.609 521.329 684.219 521.467 683.905 521.654C683.59 521.841 683.351 522.077 683.186 522.362C683.021 522.639 682.939 522.965 682.939 523.339C682.939 523.721 683.025 524.069 683.197 524.383C683.369 524.698 683.628 524.949 683.972 525.136C684.324 525.315 684.755 525.405 685.264 525.405C685.9 525.405 686.462 525.271 686.948 525.001C687.435 524.731 687.82 524.402 688.105 524.013C688.397 523.623 688.554 523.245 688.577 522.878L689.464 523.878C689.411 524.192 689.269 524.541 689.037 524.922C688.805 525.304 688.494 525.671 688.105 526.023C687.723 526.367 687.266 526.656 686.735 526.888C686.211 527.112 685.619 527.225 684.96 527.225C684.137 527.225 683.414 527.064 682.793 526.742C682.179 526.42 681.7 525.989 681.355 525.45C681.019 524.904 680.85 524.293 680.85 523.62C680.85 522.968 680.977 522.396 681.232 521.901C681.486 521.4 681.853 520.984 682.333 520.655C682.812 520.318 683.388 520.063 684.062 519.891C684.736 519.719 685.488 519.633 686.319 519.633H688.734ZM695.978 514.849V527H693.889V514.849H695.978ZM693.731 511.625C693.731 511.289 693.833 511.004 694.035 510.772C694.244 510.54 694.551 510.424 694.956 510.424C695.352 510.424 695.656 510.54 695.865 510.772C696.082 511.004 696.191 511.289 696.191 511.625C696.191 511.947 696.082 512.224 695.865 512.457C695.656 512.681 695.352 512.793 694.956 512.793C694.551 512.793 694.244 512.681 694.035 512.457C693.833 512.224 693.731 511.947 693.731 511.625ZM701.57 509.75V527H699.481V509.75H701.57Z" fill="#7B7575"/>
<path d="M344.342 611.636H338.644V609.336H344.342C345.445 609.336 346.339 609.16 347.022 608.809C347.706 608.457 348.204 607.969 348.517 607.344C348.839 606.719 349 606.006 349 605.205C349 604.473 348.839 603.784 348.517 603.14C348.204 602.495 347.706 601.978 347.022 601.587C346.339 601.187 345.445 600.986 344.342 600.986H339.303V620H336.476V598.672H344.342C345.953 598.672 347.315 598.95 348.429 599.507C349.542 600.063 350.387 600.835 350.963 601.821C351.539 602.798 351.827 603.916 351.827 605.176C351.827 606.543 351.539 607.71 350.963 608.677C350.387 609.644 349.542 610.381 348.429 610.889C347.315 611.387 345.953 611.636 344.342 611.636ZM361.275 600.562L354.215 620H351.329L359.459 598.672H361.319L361.275 600.562ZM367.193 620L360.118 600.562L360.074 598.672H361.935L370.094 620H367.193ZM366.827 612.104V614.419H354.845V612.104H366.827ZM384.317 614.609C384.317 614.111 384.239 613.672 384.083 613.291C383.937 612.9 383.673 612.549 383.292 612.236C382.921 611.924 382.403 611.626 381.739 611.343C381.085 611.06 380.255 610.771 379.249 610.479C378.194 610.166 377.242 609.819 376.393 609.438C375.543 609.048 374.815 608.604 374.21 608.105C373.604 607.607 373.141 607.036 372.818 606.392C372.496 605.747 372.335 605.01 372.335 604.18C372.335 603.35 372.506 602.583 372.848 601.88C373.189 601.177 373.678 600.566 374.312 600.049C374.957 599.521 375.724 599.111 376.612 598.818C377.501 598.525 378.492 598.379 379.586 598.379C381.188 598.379 382.545 598.687 383.658 599.302C384.781 599.907 385.636 600.703 386.222 601.689C386.808 602.666 387.101 603.711 387.101 604.824H384.288C384.288 604.023 384.117 603.315 383.775 602.7C383.434 602.075 382.916 601.587 382.223 601.235C381.529 600.874 380.65 600.693 379.586 600.693C378.58 600.693 377.75 600.845 377.096 601.147C376.441 601.45 375.953 601.86 375.631 602.378C375.318 602.896 375.162 603.486 375.162 604.15C375.162 604.6 375.255 605.01 375.44 605.381C375.636 605.742 375.934 606.079 376.334 606.392C376.744 606.704 377.262 606.992 377.887 607.256C378.521 607.52 379.278 607.773 380.157 608.018C381.368 608.359 382.413 608.74 383.292 609.16C384.171 609.58 384.894 610.054 385.46 610.581C386.036 611.099 386.461 611.689 386.734 612.354C387.018 613.008 387.159 613.75 387.159 614.58C387.159 615.449 386.983 616.235 386.632 616.938C386.28 617.642 385.777 618.242 385.123 618.74C384.469 619.238 383.683 619.624 382.765 619.897C381.856 620.161 380.841 620.293 379.718 620.293C378.731 620.293 377.76 620.156 376.803 619.883C375.855 619.609 374.991 619.199 374.21 618.652C373.438 618.105 372.818 617.432 372.35 616.631C371.891 615.82 371.661 614.883 371.661 613.818H374.474C374.474 614.551 374.615 615.181 374.898 615.708C375.182 616.226 375.567 616.655 376.056 616.997C376.554 617.339 377.115 617.593 377.74 617.759C378.375 617.915 379.034 617.993 379.718 617.993C380.704 617.993 381.539 617.856 382.223 617.583C382.906 617.31 383.424 616.919 383.775 616.411C384.137 615.903 384.317 615.303 384.317 614.609ZM402.13 614.609C402.13 614.111 402.052 613.672 401.896 613.291C401.749 612.9 401.485 612.549 401.104 612.236C400.733 611.924 400.216 611.626 399.552 611.343C398.897 611.06 398.067 610.771 397.062 610.479C396.007 610.166 395.055 609.819 394.205 609.438C393.355 609.048 392.628 608.604 392.022 608.105C391.417 607.607 390.953 607.036 390.631 606.392C390.309 605.747 390.147 605.01 390.147 604.18C390.147 603.35 390.318 602.583 390.66 601.88C391.002 601.177 391.49 600.566 392.125 600.049C392.77 599.521 393.536 599.111 394.425 598.818C395.313 598.525 396.305 598.379 397.398 598.379C399 598.379 400.357 598.687 401.471 599.302C402.594 599.907 403.448 600.703 404.034 601.689C404.62 602.666 404.913 603.711 404.913 604.824H402.101C402.101 604.023 401.93 603.315 401.588 602.7C401.246 602.075 400.729 601.587 400.035 601.235C399.342 600.874 398.463 600.693 397.398 600.693C396.393 600.693 395.562 600.845 394.908 601.147C394.254 601.45 393.766 601.86 393.443 602.378C393.131 602.896 392.975 603.486 392.975 604.15C392.975 604.6 393.067 605.01 393.253 605.381C393.448 605.742 393.746 606.079 394.146 606.392C394.557 606.704 395.074 606.992 395.699 607.256C396.334 607.52 397.091 607.773 397.97 608.018C399.181 608.359 400.226 608.74 401.104 609.16C401.983 609.58 402.706 610.054 403.272 610.581C403.849 611.099 404.273 611.689 404.547 612.354C404.83 613.008 404.972 613.75 404.972 614.58C404.972 615.449 404.796 616.235 404.444 616.938C404.093 617.642 403.59 618.242 402.936 618.74C402.281 619.238 401.495 619.624 400.577 619.897C399.669 620.161 398.653 620.293 397.53 620.293C396.544 620.293 395.572 620.156 394.615 619.883C393.668 619.609 392.804 619.199 392.022 618.652C391.251 618.105 390.631 617.432 390.162 616.631C389.703 615.82 389.474 614.883 389.474 613.818H392.286C392.286 614.551 392.428 615.181 392.711 615.708C392.994 616.226 393.38 616.655 393.868 616.997C394.366 617.339 394.928 617.593 395.553 617.759C396.188 617.915 396.847 617.993 397.53 617.993C398.517 617.993 399.352 617.856 400.035 617.583C400.719 617.31 401.236 616.919 401.588 616.411C401.949 615.903 402.13 615.303 402.13 614.609ZM414.186 613.555L418.419 598.672H420.47L419.283 604.458L414.728 620H412.691L414.186 613.555ZM409.806 598.672L413.175 613.262L414.186 620H412.164L406.993 598.672H409.806ZM425.948 613.247L429.244 598.672H432.071L426.915 620H424.894L425.948 613.247ZM420.777 598.672L424.894 613.555L426.388 620H424.352L419.957 604.458L418.756 598.672H420.777ZM451.627 608.662V610.01C451.627 611.611 451.427 613.047 451.026 614.316C450.626 615.586 450.05 616.665 449.298 617.554C448.546 618.442 447.643 619.121 446.588 619.59C445.543 620.059 444.371 620.293 443.072 620.293C441.812 620.293 440.655 620.059 439.601 619.59C438.556 619.121 437.647 618.442 436.876 617.554C436.114 616.665 435.523 615.586 435.104 614.316C434.684 613.047 434.474 611.611 434.474 610.01V608.662C434.474 607.061 434.679 605.63 435.089 604.37C435.509 603.101 436.1 602.021 436.861 601.133C437.623 600.234 438.526 599.551 439.571 599.082C440.626 598.613 441.783 598.379 443.043 598.379C444.342 598.379 445.514 598.613 446.559 599.082C447.613 599.551 448.517 600.234 449.269 601.133C450.03 602.021 450.611 603.101 451.012 604.37C451.422 605.63 451.627 607.061 451.627 608.662ZM448.829 610.01V608.633C448.829 607.363 448.697 606.24 448.434 605.264C448.18 604.287 447.804 603.467 447.306 602.803C446.808 602.139 446.197 601.636 445.475 601.294C444.762 600.952 443.951 600.781 443.043 600.781C442.164 600.781 441.368 600.952 440.655 601.294C439.952 601.636 439.347 602.139 438.839 602.803C438.341 603.467 437.955 604.287 437.682 605.264C437.408 606.24 437.271 607.363 437.271 608.633V610.01C437.271 611.289 437.408 612.422 437.682 613.408C437.955 614.385 438.346 615.21 438.854 615.884C439.371 616.548 439.981 617.051 440.685 617.393C441.397 617.734 442.193 617.905 443.072 617.905C443.99 617.905 444.806 617.734 445.519 617.393C446.231 617.051 446.832 616.548 447.32 615.884C447.818 615.21 448.194 614.385 448.448 613.408C448.702 612.422 448.829 611.289 448.829 610.01ZM455.86 598.672H462.921C464.522 598.672 465.875 598.916 466.979 599.404C468.092 599.893 468.937 600.615 469.513 601.572C470.099 602.52 470.392 603.687 470.392 605.073C470.392 606.05 470.191 606.943 469.791 607.754C469.4 608.555 468.834 609.238 468.092 609.805C467.359 610.361 466.48 610.776 465.455 611.05L464.664 611.357H458.028L457.999 609.058H463.009C464.024 609.058 464.869 608.882 465.543 608.53C466.217 608.169 466.725 607.686 467.066 607.08C467.408 606.475 467.579 605.806 467.579 605.073C467.579 604.253 467.418 603.535 467.096 602.92C466.773 602.305 466.266 601.831 465.572 601.499C464.889 601.157 464.005 600.986 462.921 600.986H458.688V620H455.86V598.672ZM468.326 620L463.141 610.332L466.085 610.317L471.344 619.824V620H468.326ZM480.118 620H475.665L475.694 617.7H480.118C481.642 617.7 482.911 617.383 483.927 616.748C484.942 616.104 485.704 615.205 486.212 614.053C486.729 612.891 486.988 611.533 486.988 609.98V608.677C486.988 607.456 486.842 606.372 486.549 605.425C486.256 604.468 485.826 603.662 485.26 603.008C484.693 602.344 484 601.841 483.18 601.499C482.369 601.157 481.437 600.986 480.382 600.986H475.577V598.672H480.382C481.778 598.672 483.053 598.906 484.205 599.375C485.357 599.834 486.349 600.503 487.179 601.382C488.019 602.251 488.663 603.306 489.112 604.546C489.562 605.776 489.786 607.163 489.786 608.706V609.98C489.786 611.523 489.562 612.915 489.112 614.155C488.663 615.386 488.014 616.436 487.164 617.305C486.324 618.174 485.309 618.843 484.117 619.312C482.936 619.771 481.603 620 480.118 620ZM477.174 598.672V620H474.347V598.672H477.174Z" fill="black"/>
<rect x="518.5" y="581.5" width="440" height="49" rx="3.5" fill="white" stroke="white"/>
<path d="M547.286 619.237V621H538.627V619.237H547.286ZM539.065 604.648V621H536.898V604.648H539.065ZM546.141 611.679V613.442H538.627V611.679H546.141ZM547.174 604.648V606.423H538.627V604.648H547.174ZM551.733 611.443V621H549.656V608.849H551.621L551.733 611.443ZM551.239 614.464L550.375 614.43C550.382 613.599 550.506 612.832 550.745 612.128C550.985 611.417 551.322 610.799 551.756 610.275C552.19 609.751 552.707 609.347 553.306 609.062C553.912 608.77 554.582 608.624 555.316 608.624C555.915 608.624 556.454 608.706 556.933 608.871C557.412 609.028 557.82 609.283 558.157 609.635C558.502 609.987 558.764 610.443 558.943 611.005C559.123 611.559 559.213 612.236 559.213 613.038V621H557.124V613.015C557.124 612.379 557.03 611.87 556.843 611.488C556.656 611.098 556.383 610.818 556.023 610.646C555.664 610.466 555.222 610.376 554.698 610.376C554.182 610.376 553.71 610.485 553.283 610.702C552.864 610.919 552.501 611.218 552.194 611.6C551.894 611.982 551.659 612.42 551.486 612.914C551.322 613.401 551.239 613.917 551.239 614.464ZM567.456 608.849V610.443H560.886V608.849H567.456ZM563.11 605.895H565.188V617.99C565.188 618.402 565.251 618.713 565.378 618.922C565.506 619.132 565.67 619.271 565.873 619.338C566.075 619.405 566.292 619.439 566.524 619.439C566.696 619.439 566.876 619.424 567.063 619.394C567.258 619.357 567.404 619.327 567.501 619.304L567.512 621C567.347 621.052 567.13 621.101 566.861 621.146C566.599 621.198 566.281 621.225 565.906 621.225C565.397 621.225 564.929 621.124 564.502 620.921C564.076 620.719 563.735 620.382 563.48 619.911C563.233 619.431 563.11 618.788 563.11 617.979V605.895ZM574.936 621.225C574.09 621.225 573.322 621.082 572.633 620.798C571.952 620.506 571.364 620.098 570.87 619.574C570.383 619.05 570.009 618.428 569.747 617.709C569.485 616.991 569.354 616.205 569.354 615.351V614.879C569.354 613.891 569.5 613.011 569.792 612.24C570.084 611.462 570.481 610.803 570.982 610.264C571.484 609.725 572.053 609.317 572.689 609.04C573.326 608.763 573.985 608.624 574.666 608.624C575.535 608.624 576.283 608.774 576.912 609.073C577.549 609.373 578.069 609.792 578.473 610.331C578.877 610.863 579.177 611.492 579.372 612.218C579.566 612.937 579.664 613.723 579.664 614.576V615.508H570.589V613.812H577.586V613.655C577.556 613.116 577.444 612.592 577.249 612.083C577.062 611.574 576.762 611.155 576.351 610.825C575.939 610.496 575.377 610.331 574.666 610.331C574.194 610.331 573.76 610.432 573.363 610.634C572.966 610.829 572.626 611.121 572.341 611.51C572.057 611.9 571.836 612.375 571.679 612.937C571.521 613.498 571.443 614.146 571.443 614.879V615.351C571.443 615.928 571.521 616.47 571.679 616.979C571.843 617.481 572.079 617.923 572.386 618.305C572.701 618.687 573.079 618.986 573.521 619.203C573.97 619.42 574.479 619.529 575.048 619.529C575.782 619.529 576.403 619.379 576.912 619.08C577.421 618.78 577.867 618.38 578.249 617.878L579.506 618.877C579.244 619.274 578.911 619.652 578.507 620.012C578.103 620.371 577.605 620.663 577.013 620.888C576.429 621.112 575.737 621.225 574.936 621.225ZM584.167 610.758V621H582.089V608.849H584.111L584.167 610.758ZM587.963 608.781L587.952 610.713C587.779 610.675 587.615 610.653 587.458 610.646C587.308 610.631 587.136 610.623 586.941 610.623C586.462 610.623 586.039 610.698 585.672 610.848C585.305 610.997 584.994 611.207 584.74 611.477C584.485 611.746 584.283 612.068 584.133 612.442C583.991 612.809 583.897 613.214 583.853 613.655L583.269 613.992C583.269 613.258 583.34 612.57 583.482 611.926C583.632 611.282 583.86 610.713 584.167 610.219C584.474 609.717 584.863 609.328 585.335 609.051C585.814 608.766 586.383 608.624 587.042 608.624C587.192 608.624 587.364 608.643 587.559 608.68C587.753 608.71 587.888 608.744 587.963 608.781ZM596.655 604.648L600.9 612.858L605.157 604.648H607.616L601.979 614.891V621H599.811V614.891L594.173 604.648H596.655ZM608.11 615.059V614.801C608.11 613.925 608.238 613.112 608.492 612.364C608.747 611.608 609.114 610.952 609.593 610.398C610.072 609.837 610.652 609.403 611.333 609.096C612.015 608.781 612.778 608.624 613.625 608.624C614.478 608.624 615.245 608.781 615.927 609.096C616.616 609.403 617.2 609.837 617.679 610.398C618.165 610.952 618.536 611.608 618.791 612.364C619.045 613.112 619.172 613.925 619.172 614.801V615.059C619.172 615.935 619.045 616.747 618.791 617.496C618.536 618.245 618.165 618.9 617.679 619.461C617.2 620.015 616.619 620.45 615.938 620.764C615.264 621.071 614.5 621.225 613.647 621.225C612.793 621.225 612.026 621.071 611.345 620.764C610.663 620.45 610.079 620.015 609.593 619.461C609.114 618.9 608.747 618.245 608.492 617.496C608.238 616.747 608.11 615.935 608.11 615.059ZM610.188 614.801V615.059C610.188 615.666 610.259 616.238 610.401 616.777C610.544 617.309 610.757 617.781 611.042 618.192C611.333 618.604 611.697 618.93 612.131 619.169C612.565 619.402 613.07 619.518 613.647 619.518C614.216 619.518 614.714 619.402 615.141 619.169C615.575 618.93 615.934 618.604 616.219 618.192C616.503 617.781 616.717 617.309 616.859 616.777C617.009 616.238 617.083 615.666 617.083 615.059V614.801C617.083 614.202 617.009 613.637 616.859 613.105C616.717 612.566 616.5 612.09 616.208 611.679C615.923 611.259 615.564 610.93 615.129 610.69C614.703 610.451 614.201 610.331 613.625 610.331C613.056 610.331 612.554 610.451 612.12 610.69C611.693 610.93 611.333 611.259 611.042 611.679C610.757 612.09 610.544 612.566 610.401 613.105C610.259 613.637 610.188 614.202 610.188 614.801ZM629.212 618.192V608.849H631.301V621H629.313L629.212 618.192ZM629.605 615.632L630.47 615.609C630.47 616.418 630.384 617.167 630.212 617.855C630.047 618.537 629.778 619.128 629.403 619.63C629.029 620.132 628.539 620.525 627.932 620.809C627.326 621.086 626.588 621.225 625.72 621.225C625.128 621.225 624.585 621.139 624.091 620.966C623.605 620.794 623.185 620.528 622.833 620.169C622.482 619.81 622.208 619.342 622.014 618.765C621.826 618.189 621.733 617.496 621.733 616.688V608.849H623.811V616.71C623.811 617.257 623.87 617.709 623.99 618.069C624.118 618.421 624.286 618.701 624.496 618.911C624.713 619.113 624.952 619.256 625.214 619.338C625.484 619.42 625.761 619.461 626.045 619.461C626.929 619.461 627.629 619.293 628.146 618.956C628.662 618.612 629.033 618.151 629.257 617.575C629.489 616.991 629.605 616.343 629.605 615.632ZM636.546 610.758V621H634.468V608.849H636.49L636.546 610.758ZM640.342 608.781L640.331 610.713C640.158 610.675 639.994 610.653 639.836 610.646C639.687 610.631 639.514 610.623 639.32 610.623C638.841 610.623 638.418 610.698 638.051 610.848C637.684 610.997 637.373 611.207 637.119 611.477C636.864 611.746 636.662 612.068 636.512 612.442C636.37 612.809 636.276 613.214 636.231 613.655L635.647 613.992C635.647 613.258 635.719 612.57 635.861 611.926C636.011 611.282 636.239 610.713 636.546 610.219C636.853 609.717 637.242 609.328 637.714 609.051C638.193 608.766 638.762 608.624 639.421 608.624C639.571 608.624 639.743 608.643 639.938 608.68C640.132 608.71 640.267 608.744 640.342 608.781ZM654.312 614.587H649.944V612.824H654.312C655.159 612.824 655.844 612.689 656.368 612.42C656.892 612.15 657.274 611.776 657.513 611.297C657.76 610.818 657.884 610.271 657.884 609.657C657.884 609.096 657.76 608.568 657.513 608.074C657.274 607.58 656.892 607.183 656.368 606.883C655.844 606.576 655.159 606.423 654.312 606.423H650.449V621H648.282V604.648H654.312C655.548 604.648 656.592 604.862 657.446 605.289C658.299 605.715 658.947 606.307 659.389 607.063C659.83 607.812 660.051 608.669 660.051 609.635C660.051 610.683 659.83 611.578 659.389 612.319C658.947 613.06 658.299 613.625 657.446 614.015C656.592 614.396 655.548 614.587 654.312 614.587ZM669.507 618.922V612.667C669.507 612.188 669.41 611.772 669.215 611.42C669.028 611.061 668.744 610.784 668.362 610.589C667.98 610.395 667.508 610.297 666.947 610.297C666.423 610.297 665.962 610.387 665.565 610.567C665.176 610.747 664.869 610.982 664.645 611.274C664.427 611.566 664.319 611.881 664.319 612.218H662.241C662.241 611.784 662.354 611.353 662.578 610.926C662.803 610.5 663.125 610.114 663.544 609.77C663.971 609.418 664.48 609.141 665.071 608.938C665.67 608.729 666.337 608.624 667.07 608.624C667.954 608.624 668.732 608.774 669.406 609.073C670.088 609.373 670.619 609.826 671.001 610.432C671.39 611.031 671.585 611.784 671.585 612.689V618.35C671.585 618.754 671.619 619.184 671.686 619.641C671.761 620.098 671.869 620.491 672.012 620.82V621H669.844C669.739 620.76 669.657 620.442 669.597 620.045C669.537 619.641 669.507 619.267 669.507 618.922ZM669.867 613.633L669.889 615.093H667.789C667.198 615.093 666.67 615.141 666.206 615.239C665.741 615.329 665.352 615.467 665.038 615.654C664.723 615.841 664.484 616.077 664.319 616.362C664.154 616.639 664.072 616.965 664.072 617.339C664.072 617.721 664.158 618.069 664.33 618.383C664.502 618.698 664.761 618.949 665.105 619.136C665.457 619.315 665.887 619.405 666.396 619.405C667.033 619.405 667.594 619.271 668.081 619.001C668.568 618.731 668.953 618.402 669.238 618.013C669.53 617.623 669.687 617.245 669.709 616.878L670.597 617.878C670.544 618.192 670.402 618.541 670.17 618.922C669.938 619.304 669.627 619.671 669.238 620.023C668.856 620.367 668.399 620.656 667.868 620.888C667.344 621.112 666.752 621.225 666.093 621.225C665.27 621.225 664.547 621.064 663.926 620.742C663.312 620.42 662.833 619.989 662.488 619.45C662.151 618.904 661.983 618.293 661.983 617.62C661.983 616.968 662.11 616.396 662.365 615.901C662.619 615.4 662.986 614.984 663.465 614.655C663.944 614.318 664.521 614.063 665.195 613.891C665.869 613.719 666.621 613.633 667.452 613.633H669.867ZM681.928 617.777C681.928 617.477 681.861 617.2 681.726 616.946C681.599 616.684 681.333 616.448 680.929 616.238C680.532 616.021 679.933 615.834 679.132 615.677C678.458 615.535 677.848 615.366 677.301 615.171C676.762 614.977 676.302 614.741 675.92 614.464C675.546 614.187 675.257 613.861 675.055 613.487C674.853 613.112 674.752 612.674 674.752 612.173C674.752 611.694 674.857 611.241 675.066 610.814C675.284 610.387 675.587 610.009 675.976 609.68C676.373 609.35 676.848 609.092 677.402 608.905C677.956 608.718 678.574 608.624 679.255 608.624C680.229 608.624 681.06 608.796 681.749 609.141C682.437 609.485 682.965 609.945 683.332 610.522C683.699 611.091 683.882 611.724 683.882 612.42H681.805C681.805 612.083 681.704 611.757 681.501 611.443C681.307 611.121 681.019 610.855 680.637 610.646C680.262 610.436 679.802 610.331 679.255 610.331C678.679 610.331 678.211 610.421 677.852 610.601C677.5 610.773 677.241 610.994 677.077 611.263C676.919 611.533 676.841 611.817 676.841 612.117C676.841 612.341 676.878 612.543 676.953 612.723C677.035 612.895 677.178 613.056 677.38 613.206C677.582 613.348 677.867 613.483 678.233 613.61C678.6 613.738 679.068 613.865 679.637 613.992C680.633 614.217 681.453 614.486 682.097 614.801C682.741 615.115 683.22 615.501 683.534 615.958C683.849 616.414 684.006 616.968 684.006 617.62C684.006 618.151 683.894 618.638 683.669 619.08C683.452 619.521 683.134 619.903 682.714 620.225C682.303 620.54 681.808 620.787 681.232 620.966C680.663 621.139 680.023 621.225 679.312 621.225C678.241 621.225 677.335 621.034 676.594 620.652C675.853 620.27 675.291 619.776 674.909 619.169C674.527 618.563 674.336 617.923 674.336 617.249H676.425C676.455 617.818 676.62 618.271 676.919 618.608C677.219 618.937 677.586 619.173 678.02 619.315C678.454 619.45 678.885 619.518 679.312 619.518C679.881 619.518 680.356 619.443 680.738 619.293C681.127 619.143 681.423 618.937 681.625 618.675C681.827 618.413 681.928 618.114 681.928 617.777ZM693.81 617.777C693.81 617.477 693.743 617.2 693.608 616.946C693.481 616.684 693.215 616.448 692.811 616.238C692.414 616.021 691.815 615.834 691.014 615.677C690.34 615.535 689.73 615.366 689.183 615.171C688.644 614.977 688.184 614.741 687.802 614.464C687.427 614.187 687.139 613.861 686.937 613.487C686.735 613.112 686.634 612.674 686.634 612.173C686.634 611.694 686.739 611.241 686.948 610.814C687.165 610.387 687.469 610.009 687.858 609.68C688.255 609.35 688.73 609.092 689.284 608.905C689.838 608.718 690.456 608.624 691.137 608.624C692.111 608.624 692.942 608.796 693.63 609.141C694.319 609.485 694.847 609.945 695.214 610.522C695.581 611.091 695.764 611.724 695.764 612.42H693.687C693.687 612.083 693.585 611.757 693.383 611.443C693.189 611.121 692.9 610.855 692.519 610.646C692.144 610.436 691.684 610.331 691.137 610.331C690.561 610.331 690.093 610.421 689.733 610.601C689.382 610.773 689.123 610.994 688.958 611.263C688.801 611.533 688.723 611.817 688.723 612.117C688.723 612.341 688.76 612.543 688.835 612.723C688.917 612.895 689.06 613.056 689.262 613.206C689.464 613.348 689.748 613.483 690.115 613.61C690.482 613.738 690.95 613.865 691.519 613.992C692.515 614.217 693.335 614.486 693.979 614.801C694.622 615.115 695.102 615.501 695.416 615.958C695.73 616.414 695.888 616.968 695.888 617.62C695.888 618.151 695.775 618.638 695.551 619.08C695.334 619.521 695.015 619.903 694.596 620.225C694.184 620.54 693.69 620.787 693.114 620.966C692.545 621.139 691.905 621.225 691.193 621.225C690.123 621.225 689.217 621.034 688.476 620.652C687.734 620.27 687.173 619.776 686.791 619.169C686.409 618.563 686.218 617.923 686.218 617.249H688.307C688.337 617.818 688.502 618.271 688.801 618.608C689.101 618.937 689.468 619.173 689.902 619.315C690.336 619.45 690.767 619.518 691.193 619.518C691.762 619.518 692.238 619.443 692.62 619.293C693.009 619.143 693.305 618.937 693.507 618.675C693.709 618.413 693.81 618.114 693.81 617.777ZM701.694 618.844L704.816 608.849H706.186L705.917 610.836L702.738 621H701.402L701.694 618.844ZM699.594 608.849L702.255 618.956L702.446 621H701.042L697.516 608.849H699.594ZM709.173 618.877L711.711 608.849H713.778L710.251 621H708.859L709.173 618.877ZM706.489 608.849L709.544 618.675L709.892 621H708.567L705.299 610.814L705.029 608.849H706.489ZM715.361 615.059V614.801C715.361 613.925 715.489 613.112 715.743 612.364C715.998 611.608 716.365 610.952 716.844 610.398C717.323 609.837 717.903 609.403 718.584 609.096C719.266 608.781 720.029 608.624 720.875 608.624C721.729 608.624 722.496 608.781 723.178 609.096C723.867 609.403 724.451 609.837 724.93 610.398C725.416 610.952 725.787 611.608 726.042 612.364C726.296 613.112 726.423 613.925 726.423 614.801V615.059C726.423 615.935 726.296 616.747 726.042 617.496C725.787 618.245 725.416 618.9 724.93 619.461C724.451 620.015 723.87 620.45 723.189 620.764C722.515 621.071 721.751 621.225 720.898 621.225C720.044 621.225 719.277 621.071 718.596 620.764C717.914 620.45 717.33 620.015 716.844 619.461C716.365 618.9 715.998 618.245 715.743 617.496C715.489 616.747 715.361 615.935 715.361 615.059ZM717.439 614.801V615.059C717.439 615.666 717.51 616.238 717.652 616.777C717.795 617.309 718.008 617.781 718.292 618.192C718.584 618.604 718.948 618.93 719.382 619.169C719.816 619.402 720.321 619.518 720.898 619.518C721.467 619.518 721.965 619.402 722.392 619.169C722.826 618.93 723.185 618.604 723.47 618.192C723.754 617.781 723.968 617.309 724.11 616.777C724.26 616.238 724.334 615.666 724.334 615.059V614.801C724.334 614.202 724.26 613.637 724.11 613.105C723.968 612.566 723.75 612.09 723.458 611.679C723.174 611.259 722.815 610.93 722.38 610.69C721.954 610.451 721.452 610.331 720.875 610.331C720.306 610.331 719.805 610.451 719.371 610.69C718.944 610.93 718.584 611.259 718.292 611.679C718.008 612.09 717.795 612.566 717.652 613.105C717.51 613.637 717.439 614.202 717.439 614.801ZM731.106 610.758V621H729.029V608.849H731.05L731.106 610.758ZM734.902 608.781L734.891 610.713C734.719 610.675 734.554 610.653 734.397 610.646C734.247 610.631 734.075 610.623 733.88 610.623C733.401 610.623 732.978 610.698 732.611 610.848C732.244 610.997 731.934 611.207 731.679 611.477C731.425 611.746 731.222 612.068 731.073 612.442C730.931 612.809 730.837 613.214 730.792 613.655L730.208 613.992C730.208 613.258 730.279 612.57 730.421 611.926C730.571 611.282 730.799 610.713 731.106 610.219C731.413 609.717 731.803 609.328 732.274 609.051C732.754 608.766 733.323 608.624 733.981 608.624C734.131 608.624 734.303 608.643 734.498 608.68C734.693 608.71 734.827 608.744 734.902 608.781ZM744.257 618.642V603.75H746.346V621H744.437L744.257 618.642ZM736.082 615.059V614.823C736.082 613.895 736.194 613.053 736.418 612.296C736.651 611.533 736.976 610.878 737.396 610.331C737.822 609.785 738.328 609.365 738.912 609.073C739.503 608.774 740.162 608.624 740.888 608.624C741.652 608.624 742.318 608.759 742.887 609.028C743.464 609.29 743.95 609.676 744.347 610.185C744.751 610.687 745.07 611.293 745.302 612.004C745.534 612.716 745.695 613.521 745.785 614.419V615.452C745.702 616.343 745.541 617.144 745.302 617.855C745.07 618.567 744.751 619.173 744.347 619.675C743.95 620.176 743.464 620.562 742.887 620.832C742.311 621.094 741.637 621.225 740.866 621.225C740.154 621.225 739.503 621.071 738.912 620.764C738.328 620.457 737.822 620.027 737.396 619.473C736.976 618.919 736.651 618.267 736.418 617.519C736.194 616.762 736.082 615.943 736.082 615.059ZM738.17 614.823V615.059C738.17 615.666 738.23 616.235 738.35 616.766C738.477 617.298 738.672 617.766 738.934 618.17C739.196 618.574 739.529 618.892 739.934 619.125C740.338 619.349 740.821 619.461 741.382 619.461C742.071 619.461 742.636 619.315 743.078 619.023C743.527 618.731 743.887 618.346 744.156 617.867C744.426 617.388 744.635 616.867 744.785 616.306V613.599C744.695 613.187 744.564 612.791 744.392 612.409C744.227 612.019 744.01 611.675 743.741 611.375C743.479 611.069 743.153 610.825 742.764 610.646C742.382 610.466 741.929 610.376 741.405 610.376C740.836 610.376 740.345 610.496 739.934 610.735C739.529 610.967 739.196 611.289 738.934 611.701C738.672 612.105 738.477 612.577 738.35 613.116C738.23 613.648 738.17 614.217 738.17 614.823Z" fill="#7B7575"/>
<rect x="962" y="713" width="133" height="52" rx="4" fill="black" stroke="black" stroke-width="2"/>
<path d="M1002.18 746.229V750H990.366V746.229H1002.18ZM991.929 726.539V750H987.095V726.539H991.929ZM1003.92 741.46V741.122C1003.92 739.843 1004.1 738.667 1004.46 737.593C1004.83 736.508 1005.36 735.568 1006.06 734.773C1006.76 733.978 1007.62 733.36 1008.64 732.92C1009.66 732.469 1010.83 732.243 1012.15 732.243C1013.47 732.243 1014.65 732.469 1015.68 732.92C1016.71 733.36 1017.58 733.978 1018.27 734.773C1018.98 735.568 1019.52 736.508 1019.89 737.593C1020.25 738.667 1020.43 739.843 1020.43 741.122V741.46C1020.43 742.728 1020.25 743.904 1019.89 744.989C1019.52 746.063 1018.98 747.003 1018.27 747.809C1017.58 748.604 1016.72 749.221 1015.7 749.662C1014.68 750.102 1013.5 750.322 1012.18 750.322C1010.86 750.322 1009.69 750.102 1008.65 749.662C1007.63 749.221 1006.77 748.604 1006.06 747.809C1005.36 747.003 1004.83 746.063 1004.46 744.989C1004.1 743.904 1003.92 742.728 1003.92 741.46ZM1008.56 741.122V741.46C1008.56 742.19 1008.62 742.873 1008.75 743.506C1008.88 744.14 1009.08 744.699 1009.36 745.182C1009.65 745.655 1010.03 746.025 1010.49 746.294C1010.95 746.562 1011.52 746.697 1012.18 746.697C1012.83 746.697 1013.38 746.562 1013.84 746.294C1014.3 746.025 1014.68 745.655 1014.95 745.182C1015.23 744.699 1015.44 744.14 1015.57 743.506C1015.71 742.873 1015.78 742.19 1015.78 741.46V741.122C1015.78 740.413 1015.71 739.747 1015.57 739.124C1015.44 738.49 1015.23 737.931 1014.94 737.448C1014.66 736.954 1014.29 736.567 1013.83 736.288C1013.36 736.008 1012.81 735.869 1012.15 735.869C1011.5 735.869 1010.94 736.008 1010.48 736.288C1010.02 736.567 1009.65 736.954 1009.36 737.448C1009.08 737.931 1008.88 738.49 1008.75 739.124C1008.62 739.747 1008.56 740.413 1008.56 741.122ZM1034.32 732.565H1038.53V749.42C1038.53 751.01 1038.17 752.358 1037.46 753.464C1036.77 754.582 1035.79 755.425 1034.53 755.994C1033.28 756.574 1031.81 756.864 1030.15 756.864C1029.42 756.864 1028.65 756.768 1027.83 756.574C1027.02 756.381 1026.25 756.08 1025.51 755.672C1024.78 755.264 1024.17 754.748 1023.67 754.125L1025.72 751.386C1026.26 752.009 1026.88 752.492 1027.59 752.836C1028.3 753.19 1029.08 753.368 1029.94 753.368C1030.78 753.368 1031.49 753.212 1032.07 752.9C1032.65 752.6 1033.09 752.154 1033.4 751.563C1033.72 750.983 1033.87 750.279 1033.87 749.452V736.594L1034.32 732.565ZM1022.59 741.492V741.154C1022.59 739.822 1022.75 738.613 1023.08 737.528C1023.41 736.433 1023.88 735.493 1024.48 734.708C1025.09 733.924 1025.83 733.317 1026.7 732.888C1027.57 732.458 1028.55 732.243 1029.65 732.243C1030.81 732.243 1031.78 732.458 1032.57 732.888C1033.35 733.317 1034 733.93 1034.5 734.725C1035 735.509 1035.4 736.438 1035.68 737.512C1035.97 738.576 1036.19 739.741 1036.35 741.009V741.75C1036.19 742.964 1035.95 744.092 1035.63 745.134C1035.31 746.176 1034.88 747.089 1034.35 747.873C1033.83 748.646 1033.17 749.248 1032.39 749.678C1031.62 750.107 1030.69 750.322 1029.62 750.322C1028.54 750.322 1027.57 750.102 1026.7 749.662C1025.84 749.221 1025.11 748.604 1024.49 747.809C1023.88 747.014 1023.41 746.079 1023.08 745.005C1022.75 743.931 1022.59 742.76 1022.59 741.492ZM1027.23 741.154V741.492C1027.23 742.212 1027.3 742.883 1027.44 743.506C1027.58 744.129 1027.8 744.683 1028.09 745.166C1028.39 745.639 1028.76 746.009 1029.2 746.278C1029.65 746.536 1030.18 746.665 1030.79 746.665C1031.64 746.665 1032.34 746.487 1032.87 746.133C1033.41 745.768 1033.81 745.268 1034.08 744.634C1034.35 744 1034.51 743.27 1034.55 742.443V740.332C1034.53 739.655 1034.44 739.048 1034.27 738.511C1034.11 737.963 1033.89 737.496 1033.6 737.109C1033.31 736.723 1032.93 736.422 1032.47 736.207C1032.01 735.992 1031.46 735.885 1030.83 735.885C1030.21 735.885 1029.68 736.024 1029.23 736.304C1028.79 736.572 1028.42 736.943 1028.12 737.416C1027.83 737.888 1027.61 738.447 1027.46 739.091C1027.31 739.725 1027.23 740.413 1027.23 741.154ZM1047.04 732.565V750H1042.38V732.565H1047.04ZM1042.09 728.021C1042.09 727.345 1042.33 726.786 1042.8 726.346C1043.27 725.905 1043.9 725.685 1044.7 725.685C1045.48 725.685 1046.11 725.905 1046.58 726.346C1047.07 726.786 1047.31 727.345 1047.31 728.021C1047.31 728.698 1047.07 729.257 1046.58 729.697C1046.11 730.138 1045.48 730.358 1044.7 730.358C1043.9 730.358 1043.27 730.138 1042.8 729.697C1042.33 729.257 1042.09 728.698 1042.09 728.021ZM1055.42 736.288V750H1050.77V732.565H1055.12L1055.42 736.288ZM1054.74 740.67H1053.48C1053.48 739.381 1053.65 738.221 1053.98 737.19C1054.31 736.148 1054.78 735.262 1055.38 734.531C1055.98 733.79 1056.7 733.226 1057.53 732.839C1058.36 732.442 1059.3 732.243 1060.33 732.243C1061.15 732.243 1061.89 732.361 1062.57 732.598C1063.25 732.834 1063.83 733.21 1064.31 733.726C1064.8 734.241 1065.18 734.923 1065.44 735.772C1065.71 736.621 1065.84 737.657 1065.84 738.882V750H1061.17V738.866C1061.17 738.092 1061.06 737.491 1060.85 737.061C1060.63 736.631 1060.31 736.331 1059.89 736.159C1059.49 735.976 1058.98 735.885 1058.38 735.885C1057.76 735.885 1057.21 736.008 1056.75 736.255C1056.3 736.502 1055.93 736.846 1055.62 737.287C1055.33 737.716 1055.11 738.221 1054.96 738.801C1054.81 739.381 1054.74 740.004 1054.74 740.67Z" fill="white"/>
<ellipse cx="719.63" cy="379.807" rx="77.6305" ry="78.8067" fill="#D9D9D9"/>
<path d="M719.152 381.927C730.372 381.927 739.468 372.764 739.468 361.459C739.468 350.155 730.372 340.991 719.152 340.991C707.931 340.991 698.835 350.155 698.835 361.459C698.835 372.764 707.931 381.927 719.152 381.927Z" fill="#642514"/>
<path d="M752.282 420.974H686.646L684.458 418.77C684.458 418.77 684.202 414.918 684.458 412.472C684.747 409.713 685.066 408.147 686.021 405.544C687.081 402.654 687.943 401.087 689.771 398.617C691.165 396.733 692.02 395.685 693.835 394.208C695.707 392.684 696.987 392.129 699.148 391.059C701.956 389.67 703.636 389.074 706.649 388.225C716.054 385.578 731.654 388.225 731.654 388.225C731.654 388.225 736.166 389.662 738.843 391.059C740.887 392.127 742.037 392.769 743.843 394.208C745.739 395.719 746.708 396.717 748.219 398.617C750.17 401.069 750.962 402.698 752.282 405.544C753.492 408.152 754.366 409.624 754.783 412.472C755.086 414.54 754.783 418.77 754.783 418.77L752.282 420.974Z" fill="#642514"/>
<defs>
<filter id="filter0_d_27_217" x="258.9" y="197.9" width="926.2" height="621.2" filterUnits="userSpaceOnUse" color-interpolation-filters="sRGB">
<feFlood flood-opacity="0" result="BackgroundImageFix"/>
<feColorMatrix in="SourceAlpha" type="matrix" values="0 0 0 0 0 0 0 0 0 0 0 0 0 0 0 0 0 0 127 0" result="hardAlpha"/>
<feOffset dx="1" dy="2"/>
<feGaussianBlur stdDeviation="3.05"/>
<feComposite in2="hardAlpha" operator="out"/>
<feColorMatrix type="matrix" values="0 0 0 0 0 0 0 0 0 0 0 0 0 0 0 0 0 0 0.25 0"/>
<feBlend mode="normal" in2="BackgroundImageFix" result="effect1_dropShadow_27_217"/>
<feBlend mode="normal" in="SourceGraphic" in2="effect1_dropShadow_27_217" result="shape"/>
</filter>
<linearGradient id="paint0_linear_27_217" x1="314" y1="277.5" x2="1274.5" y2="263" gradientUnits="userSpaceOnUse">
<stop stop-color="#FEC2C9"/>
<stop offset="1" stop-color="#F6DCB5"/>
<stop offset="1" stop-color="#F6DCB5"/>
</linearGradient>
<linearGradient id="paint1_linear_27_217" x1="344" y1="262" x2="1066.5" y2="763" gradientUnits="userSpaceOnUse">
<stop stop-color="#FEC2C9"/>
<stop offset="1" stop-color="#F6DCB5"/>
</linearGradient>
</defs>
</svg>
