<svg width="24" height="34" viewBox="0 0 24 34" fill="none" xmlns="http://www.w3.org/2000/svg">
<circle cx="12" cy="20" r="12" fill="#131313"/>
<path d="M15.7025 22.64H13.0025V32H11.2425V22.64H9.3625V21.82L11.2425 21.22V20.6C11.2425 19.68 11.3758 18.9333 11.6425 18.36C11.9225 17.7867 12.3225 17.3667 12.8425 17.1C13.3625 16.8333 13.9892 16.7 14.7225 16.7C15.1492 16.7 15.5358 16.74 15.8825 16.82C16.2425 16.8867 16.5492 16.9667 16.8025 17.06L16.3425 18.44C16.1292 18.3733 15.8825 18.3067 15.6025 18.24C15.3225 18.1733 15.0358 18.14 14.7425 18.14C14.1558 18.14 13.7158 18.34 13.4225 18.74C13.1425 19.1267 13.0025 19.74 13.0025 20.58V21.28H15.7025V22.64Z" fill="white"/>
</svg>
