<svg width="24" height="24" viewBox="0 0 24 24" fill="none" xmlns="http://www.w3.org/2000/svg">
<circle cx="12" cy="12" r="12" fill="#131313"/>
<path d="M8.53564 11.0752V19H7.17334V11.0752H8.53564ZM7.0708 8.97314C7.0708 8.75342 7.13672 8.56787 7.26855 8.4165C7.40527 8.26514 7.60547 8.18945 7.86914 8.18945C8.12793 8.18945 8.32568 8.26514 8.4624 8.4165C8.604 8.56787 8.6748 8.75342 8.6748 8.97314C8.6748 9.18311 8.604 9.36377 8.4624 9.51514C8.32568 9.66162 8.12793 9.73486 7.86914 9.73486C7.60547 9.73486 7.40527 9.66162 7.26855 9.51514C7.13672 9.36377 7.0708 9.18311 7.0708 8.97314ZM12.0659 12.7671V19H10.7109V11.0752H11.9927L12.0659 12.7671ZM11.7437 14.7373L11.1797 14.7153C11.1846 14.1733 11.2651 13.6729 11.4214 13.2139C11.5776 12.75 11.7974 12.3472 12.0806 12.0054C12.3638 11.6636 12.7007 11.3999 13.0913 11.2144C13.4868 11.0239 13.9238 10.9287 14.4023 10.9287C14.793 10.9287 15.1445 10.9824 15.457 11.0898C15.7695 11.1924 16.0356 11.3584 16.2554 11.5879C16.48 11.8174 16.6509 12.1152 16.7681 12.4814C16.8853 12.8428 16.9438 13.2847 16.9438 13.8071V19H15.5815V13.7925C15.5815 13.3774 15.5205 13.0454 15.3984 12.7964C15.2764 12.5425 15.0981 12.3594 14.8638 12.2471C14.6294 12.1299 14.3413 12.0713 13.9995 12.0713C13.6626 12.0713 13.355 12.1421 13.0767 12.2837C12.8032 12.4253 12.5664 12.6206 12.3662 12.8696C12.1709 13.1187 12.0171 13.4043 11.9048 13.7266C11.7974 14.0439 11.7437 14.3809 11.7437 14.7373Z" fill="white"/>
</svg>
