<svg width="97" height="50" viewBox="0 0 97 50" fill="none" xmlns="http://www.w3.org/2000/svg">
<path d="M29 42.4699L16.1443 50H12.8557L0 41.5663V25L14.6495 16.5663V0L29 8.73494V42.4699Z" fill="#F85606"/>
<path d="M15 32V17L27 23.875V25.125L16.1707 32H15Z" fill="white"/>
<path d="M42.5 14.96C43.98 14.96 45.2733 15.2533 46.38 15.84C47.4867 16.4267 48.34 17.2533 48.94 18.32C49.5533 19.3733 49.86 20.5933 49.86 21.98C49.86 23.3533 49.5533 24.5733 48.94 25.64C48.34 26.7067 47.48 27.5333 46.36 28.12C45.2533 28.7067 43.9667 29 42.5 29H37.24V14.96H42.5ZM42.28 26.04C43.5733 26.04 44.58 25.6867 45.3 24.98C46.02 24.2733 46.38 23.2733 46.38 21.98C46.38 20.6867 46.02 19.68 45.3 18.96C44.58 18.24 43.5733 17.88 42.28 17.88H40.66V26.04H42.28ZM51.0913 23.4C51.0913 22.2533 51.3046 21.2467 51.7313 20.38C52.1713 19.5133 52.7646 18.8467 53.5113 18.38C54.2579 17.9133 55.0913 17.68 56.0113 17.68C56.7979 17.68 57.4846 17.84 58.0713 18.16C58.6713 18.48 59.1313 18.9 59.4513 19.42V17.84H62.8713V29H59.4513V27.42C59.1179 27.94 58.6513 28.36 58.0513 28.68C57.4646 29 56.7779 29.16 55.9913 29.16C55.0846 29.16 54.2579 28.9267 53.5113 28.46C52.7646 27.98 52.1713 27.3067 51.7313 26.44C51.3046 25.56 51.0913 24.5467 51.0913 23.4ZM59.4513 23.42C59.4513 22.5667 59.2113 21.8933 58.7313 21.4C58.2646 20.9067 57.6913 20.66 57.0113 20.66C56.3313 20.66 55.7513 20.9067 55.2713 21.4C54.8046 21.88 54.5713 22.5467 54.5713 23.4C54.5713 24.2533 54.8046 24.9333 55.2713 25.44C55.7513 25.9333 56.3313 26.18 57.0113 26.18C57.6913 26.18 58.2646 25.9333 58.7313 25.44C59.2113 24.9467 59.4513 24.2733 59.4513 23.42ZM68.7655 19.7C69.1655 19.0867 69.6655 18.6067 70.2655 18.26C70.8655 17.9 71.5321 17.72 72.2655 17.72V21.34H71.3255C70.4721 21.34 69.8321 21.5267 69.4055 21.9C68.9788 22.26 68.7655 22.9 68.7655 23.82V29H65.3455V17.84H68.7655V19.7ZM73.2202 23.4C73.2202 22.2533 73.4335 21.2467 73.8602 20.38C74.3002 19.5133 74.8935 18.8467 75.6402 18.38C76.3868 17.9133 77.2202 17.68 78.1402 17.68C78.9268 17.68 79.6135 17.84 80.2002 18.16C80.8002 18.48 81.2602 18.9 81.5802 19.42V17.84H85.0002V29H81.5802V27.42C81.2468 27.94 80.7802 28.36 80.1802 28.68C79.5935 29 78.9068 29.16 78.1202 29.16C77.2135 29.16 76.3868 28.9267 75.6402 28.46C74.8935 27.98 74.3002 27.3067 73.8602 26.44C73.4335 25.56 73.2202 24.5467 73.2202 23.4ZM81.5802 23.42C81.5802 22.5667 81.3402 21.8933 80.8602 21.4C80.3935 20.9067 79.8202 20.66 79.1402 20.66C78.4602 20.66 77.8802 20.9067 77.4002 21.4C76.9335 21.88 76.7002 22.5467 76.7002 23.4C76.7002 24.2533 76.9335 24.9333 77.4002 25.44C77.8802 25.9333 78.4602 26.18 79.1402 26.18C79.8202 26.18 80.3935 25.9333 80.8602 25.44C81.3402 24.9467 81.5802 24.2733 81.5802 23.42ZM90.6744 26.18H95.5144V29H86.8544V26.28L91.4944 20.66H86.8944V17.84H95.4144V20.56L90.6744 26.18Z" fill="#F85606"/>
</svg>
