<svg width="24" height="24" viewBox="0 0 24 24" fill="none" xmlns="http://www.w3.org/2000/svg">
<g clip-path="url(#clip0_1_185)">
<path d="M10.07 22.5C11.1249 22.5 11.98 21.6449 11.98 20.59C11.98 19.5351 11.1249 18.68 10.07 18.68C9.01514 18.68 8.16 19.5351 8.16 20.59C8.16 21.6449 9.01514 22.5 10.07 22.5Z" stroke="black" stroke-width="2" stroke-miterlimit="10"/>
<path d="M18.66 22.5C19.7149 22.5 20.57 21.6449 20.57 20.59C20.57 19.5351 19.7149 18.68 18.66 18.68C17.6051 18.68 16.75 19.5351 16.75 20.59C16.75 21.6449 17.6051 22.5 18.66 22.5Z" stroke="black" stroke-width="2" stroke-miterlimit="10"/>
<path d="M0.52 1.5H3.18C3.78998 1.49893 4.38443 1.69223 4.87711 2.05186C5.3698 2.41148 5.7351 2.91873 5.92 3.5L9.11 13.91H8.64C8.00613 13.91 7.39823 14.1618 6.95002 14.61C6.5018 15.0582 6.25 15.6661 6.25 16.3C6.25265 16.9321 6.50562 17.5375 6.95354 17.9835C7.40147 18.4296 8.00786 18.68 8.64 18.68H18.64" stroke="black" stroke-width="2" stroke-miterlimit="10"/>
<path d="M7.21 5.32001H22.48V7.23001L20.57 13.91H9.11" stroke="black" stroke-width="2" stroke-miterlimit="10"/>
</g>
<defs>
<clipPath id="clip0_1_185">
<rect width="24" height="24" fill="white"/>
</clipPath>
</defs>
</svg>
